<svg viewBox="0 0 800 520" xmlns="http://www.w3.org/2000/svg" font-family="Segoe UI, Helvetica, Arial, sans-serif">
  <defs>
    <linearGradient id="bar" x1="0" y1="0" x2="1" y2="0">
      <stop offset="0" stop-color="#2563eb"/>
      <stop offset="1" stop-color="#60a5fa"/>
    </linearGradient>
  </defs>
  <rect x="0" y="0" width="800" height="520" rx="16" fill="#0a0e27"/>
  <rect x="0.5" y="0.5" width="799" height="519" rx="16" fill="none" stroke="#1e2a52"/>
  <text x="24" y="40" fill="#eef2ff" font-size="22" font-weight="700">Respaldo por skill</text>
  <text x="24" y="64" fill="#94a3b8" font-size="13">N&#186; de certificados que avalan cada &#225;rea &#183; 50+ certificados en total</text>
  <text x="24" y="97" fill="#cdd9f5" font-size="14" font-weight="600">IA &amp; GenAI</text>
  <rect x="250" y="80" width="510" height="26" rx="6" fill="#131a3a"/>
  <rect x="250" y="80" width="510" height="26" rx="6" fill="url(#bar)"/>
  <text x="744" y="97" fill="#0a0e27" font-size="13" font-weight="700" text-anchor="end">8</text>
  <text x="24" y="147" fill="#cdd9f5" font-size="14" font-weight="600">Backend &#183; Java/Spring</text>
  <rect x="250" y="130" width="510" height="26" rx="6" fill="#131a3a"/>
  <rect x="250" y="130" width="382" height="26" rx="6" fill="url(#bar)"/>
  <text x="616" y="147" fill="#60a5fa" font-size="13" font-weight="700" text-anchor="end">6</text>
  <text x="24" y="197" fill="#cdd9f5" font-size="14" font-weight="600">Seguridad</text>
  <rect x="250" y="180" width="510" height="26" rx="6" fill="#131a3a"/>
  <rect x="250" y="180" width="382" height="26" rx="6" fill="url(#bar)"/>
  <text x="616" y="197" fill="#60a5fa" font-size="13" font-weight="700" text-anchor="end">6</text>
  <text x="24" y="247" fill="#cdd9f5" font-size="14" font-weight="600">Cloud &#183; AWS/Serverless</text>
  <rect x="250" y="230" width="510" height="26" rx="6" fill="#131a3a"/>
  <rect x="250" y="230" width="319" height="26" rx="6" fill="url(#bar)"/>
  <text x="553" y="247" fill="#60a5fa" font-size="13" font-weight="700" text-anchor="end">5</text>
  <text x="24" y="297" fill="#cdd9f5" font-size="14" font-weight="600">Python</text>
  <rect x="250" y="280" width="510" height="26" rx="6" fill="#131a3a"/>
  <rect x="250" y="280" width="319" height="26" rx="6" fill="url(#bar)"/>
  <text x="553" y="297" fill="#60a5fa" font-size="13" font-weight="700" text-anchor="end">5</text>
  <text x="24" y="347" fill="#cdd9f5" font-size="14" font-weight="600">Arquitectura &amp; Patrones</text>
  <rect x="250" y="330" width="510" height="26" rx="6" fill="#131a3a"/>
  <rect x="250" y="330" width="319" height="26" rx="6" fill="url(#bar)"/>
  <text x="553" y="347" fill="#60a5fa" font-size="13" font-weight="700" text-anchor="end">5</text>
  <text x="24" y="397" fill="#cdd9f5" font-size="14" font-weight="600">JavaScript &#183; Node</text>
  <rect x="250" y="380" width="510" height="26" rx="6" fill="#131a3a"/>
  <rect x="250" y="380" width="191" height="26" rx="6" fill="url(#bar)"/>
  <text x="425" y="397" fill="#60a5fa" font-size="13" font-weight="700" text-anchor="end">3</text>
  <text x="24" y="447" fill="#cdd9f5" font-size="14" font-weight="600">DevOps &amp; Observabilidad</text>
  <rect x="250" y="430" width="510" height="26" rx="6" fill="#131a3a"/>
  <rect x="250" y="430" width="191" height="26" rx="6" fill="url(#bar)"/>
  <text x="425" y="447" fill="#60a5fa" font-size="13" font-weight="700" text-anchor="end">3</text>
  <text x="24" y="495" fill="#5a7bd4" font-size="11">Udemy &#183; Coursera (IBM) &#183; Anthropic &#183; AWS &#8212; actualizado 2026</text>
</svg>
